<svg class="css-ze2te4 css-qd6ojx" viewBox="0 0 109.375 93.91040053133739"><g transform="translate(-10.743823097628589, -18.477803892570314) scale(1.3086264369925034)" class="css-1oojqjl" fill="#fff"><defs xmlns="http://www.w3.org/2000/svg"></defs><g xmlns="http://www.w3.org/2000/svg"><path class="fil0" d="M70.14 14.12c5.36,0 10.99,2.59 15.15,6.75 3.87,3.87 6.5,9.11 6.5,14.89 0,12.76 -7.18,23.48 -15.96,31.91 -8.64,8.31 -18.82,14.4 -25.09,18.01 -0.47,0.28 -1.04,0.26 -1.49,0 -6.26,-3.61 -16.43,-9.69 -25.08,-18.01 -8.77,-8.43 -15.96,-19.15 -15.96,-31.91 0,-5.78 2.63,-11.02 6.5,-14.89 4.16,-4.16 9.79,-6.75 15.15,-6.75 4.58,0 9.12,1.08 12.99,3.28 2.83,1.61 5.3,3.82 7.15,6.64 1.85,-2.82 4.32,-5.03 7.15,-6.64 3.87,-2.2 8.41,-3.28 12.99,-3.28zm8.28 25.36c-0.12,1.13 -0.46,2.3 -0.95,3.41 -0.67,1.51 -1.62,2.92 -2.62,3.93 -0.38,0.39 -1.02,0.39 -1.41,0.01 -0.39,-0.39 -0.39,-1.02 0,-1.41 0.83,-0.84 1.63,-2.04 2.2,-3.34 0.39,-0.88 0.67,-1.8 0.78,-2.67 -0.74,-0.07 -1.49,-0.21 -2.21,-0.43l-0.15 -0.05c-0.99,3.2 -5.38,4.78 -10.64,6.69 -7.93,2.86 -18.03,6.52 -19.76,17.13 -0.09,0.54 -0.6,0.91 -1.14,0.82 -0.55,-0.09 -0.92,-0.6 -0.83,-1.14 1.11,-6.79 5.14,-10.95 9.96,-13.84 0.74,-3.42 0.79,-6.99 0.29,-10.44 -0.52,-3.68 -1.66,-7.21 -3.21,-10.26 -0.03,-0.05 -0.06,-0.1 -0.08,-0.16l-0.08 -0.15 -0.11 -0.22 -0.06 -0.12c-1.64,-3.17 -4.1,-5.58 -7.02,-7.24 -3.4,-1.94 -7.43,-2.88 -11.52,-2.88 -2.06,0 -4.18,0.46 -6.22,1.3l-0.11 0.06c-1.94,0.96 -3.26,2.42 -4.12,4.04 -1.12,2.11 -1.48,4.51 -1.4,6.5 0.15,3.75 1.96,7.58 4.61,11.05 3.18,4.18 7.58,7.84 11.81,10.3 0.48,0.28 0.64,0.89 0.37,1.37 -0.28,0.47 -0.89,0.64 -1.37,0.36 -4.44,-2.58 -9.05,-6.43 -12.4,-10.82 -2.88,-3.77 -4.84,-7.98 -5.01,-12.19 -0.08,-1.94 0.21,-4.23 1.1,-6.38l-0.29 0.28c-3.34,3.35 -5.62,7.84 -5.62,12.77 0,11.79 6.77,21.81 15.04,29.76 1.12,1.09 2.28,2.13 3.46,3.14 -0.2,-0.59 -0.36,-1.17 -0.45,-1.67 -0.09,-0.55 0.27,-1.07 0.82,-1.16 0.54,-0.09 1.06,0.27 1.15,0.81 0.16,0.91 0.59,2.11 1.08,3.17l0.02 0.05c0.36,0.76 0.73,1.42 1.02,1.78 6.09,4.74 12.23,8.45 16.65,11.02 2.21,-1.28 4.84,-2.84 7.68,-4.67 1.23,-1.05 2.75,-2.75 4.26,-4.69 2.19,-2.83 4.3,-6.16 5.41,-8.82 0.21,-0.51 0.79,-0.75 1.3,-0.54 0.51,0.21 0.75,0.8 0.54,1.3 -1.03,2.46 -2.84,5.44 -4.81,8.12 3.16,-2.33 6.37,-4.95 9.38,-7.84 8.26,-7.95 15.03,-17.97 15.03,-29.76 0,-4.93 -2.28,-9.42 -5.62,-12.77 -3.62,-3.62 -8.46,-5.87 -13.03,-5.87 -4.09,0 -8.12,0.94 -11.52,2.88 -2.64,1.5 -4.91,3.62 -6.53,6.35 -0.16,0.37 -0.25,0.71 -0.27,1.04 -0.02,0.45 0.07,0.87 0.27,1.24 0.2,0.39 0.52,0.75 0.92,1.05 0.61,0.46 1.38,0.79 2.23,0.95 0.44,-1.36 1.22,-2.9 2.16,-4.29 1.12,-1.69 2.49,-3.2 3.75,-3.98 0.47,-0.29 1.09,-0.15 1.38,0.32 0.29,0.47 0.14,1.08 -0.32,1.37l-0.1 0.06c-1.07,0.74 -2.12,1.95 -3.01,3.28 -1.05,1.56 -1.84,3.25 -2.14,4.48l-0.01 0.06c-0.09,0.4 -0.07,0.93 0.06,1.37 0.07,0.24 0.16,0.43 0.24,0.46 0.46,0.2 1.52,0.35 2.48,0.35 0.46,0 0.85,-0.01 1.08,-0.06 0.24,-0.89 0.85,-2.07 1.62,-3.28l0.36 -0.57c1.27,-1.93 2.76,-3.67 3.32,-4.16 0.42,-0.35 1.05,-0.31 1.41,0.11 0.34,0.39 0.32,0.98 -0.04,1.34 -0.95,0.98 -2.13,2.47 -3.1,3.93l-0.56 0.92c-0.51,0.89 -0.93,1.77 -1.12,2.5l-0.04 0.18c-0.06,0.24 -0.08,0.46 -0.07,0.66 0.02,0.29 0.09,0.52 0.23,0.69 0.2,0.23 0.57,0.45 1.17,0.67 0.79,0.3 1.87,0.61 2.88,0.7 0.64,0.05 1.22,0.01 1.59,-0.19 0.39,-0.22 0.6,-0.55 0.73,-0.96 -0.24,-0.01 -0.46,-0.03 -0.64,-0.07l-0.05 -0.01c-0.18,-0.04 -0.35,-0.1 -0.49,-0.18l-0.07 -0.04c-0.32,-0.19 -0.52,-0.46 -0.57,-0.79l-0.02 -0.2c0,-0.41 0.19,-0.76 0.61,-1.01 0.63,-0.38 1.14,-0.81 1.56,-1.33 0.44,-0.53 0.8,-1.16 1.13,-1.93 0.21,-0.51 0.79,-0.74 1.3,-0.53 0.51,0.21 0.74,0.8 0.53,1.3 -0.4,0.95 -0.86,1.74 -1.42,2.43l-0.02 0.02c0.83,1.48 2.21,2.36 3.73,2.82 2.4,0.72 5.12,0.45 6.76,-0.14 0.52,-0.19 1.09,0.08 1.27,0.6 0.19,0.52 -0.08,1.09 -0.6,1.27 -1,0.36 -2.34,0.62 -3.78,0.68zm-7.35 -2.13c-0.24,0.77 -0.7,1.42 -1.65,1.95 -0.76,0.41 -1.72,0.51 -2.72,0.43 -1.19,-0.1 -2.48,-0.47 -3.4,-0.82 -0.94,-0.35 -1.57,-0.75 -1.99,-1.24 -0.41,-0.48 -0.61,-1.01 -0.68,-1.61 -0.29,0.03 -0.59,0.05 -0.9,0.04 -1.21,0 -2.6,-0.22 -3.26,-0.5 -0.69,-0.3 -1.13,-0.96 -1.37,-1.72 -0.12,-0.41 -0.19,-0.85 -0.2,-1.28 -0.87,-0.17 -1.71,-0.47 -2.43,-0.89 0.66,1.97 1.15,4.04 1.45,6.16 0.45,3.12 0.48,6.34 -0.01,9.48 2.92,-1.47 6.01,-2.59 8.83,-3.61 4.9,-1.77 8.95,-3.23 9.47,-5.61 -0.4,-0.22 -0.78,-0.48 -1.14,-0.78z" style="fill: {{COLOR}}; fill-rule: nonzero;"></path></g></g></svg>