<?xml version="1.0" encoding="utf-8"?>
<svg xmlns="http://www.w3.org/2000/svg" viewBox="41.9906 27.5605 273.3759 234.7241" width="273.376px" height="234.724px" xmlns:bx="https://boxy-svg.com">
  <g transform="matrix(1.3086259365081787, 0, 0, 1.3086259365081787, 204.54681396484375, 103.79449462890624)" class="css-1oojqjl" fill="#fc0689" id="object-2">
    <defs xmlns="http://www.w3.org/2000/svg">
      <bx:export>
        <bx:file format="png" href="#object-1" path="Sin título.png"/>
      </bx:export>
      <bx:export>
        <bx:file format="png" href="#object-2" path="Sin título.png"/>
      </bx:export>
      <bx:export>
        <bx:file format="svg" href="#object-2" path="Sin título.svg"/>
      </bx:export>
      <bx:export>
        <bx:file format="svg" href="#object-2" path="Sin título.svg"/>
      </bx:export>
      <bx:export>
        <bx:file format="png" href="#object-2" path="Sin título.png"/>
      </bx:export>
    </defs>
    <path stroke-width="0" d="M -83.251 -53.995 C -78.911 -54.702 -71.849 -54.375 -66.865 -53.995 C -62.414 -53.656 -59.011 -53.571 -54.657 -52.067 C -49.489 -50.282 -42.441 -46.045 -37.951 -43.072 C -34.288 -40.645 -31.855 -38.85 -29.116 -35.843 C -26.078 -32.509 -22.054 -26.752 -20.763 -23.635 C -19.936 -21.638 -20.686 -20.794 -20.121 -18.816 C -19.322 -16.023 -16.685 -12.604 -15.623 -8.214 C -14.274 -2.635 -13.748 8.896 -13.695 12.669 C -13.671 14.453 -14.167 14.604 -14.017 15.881 C -13.819 17.56 -12.414 19.868 -12.089 21.985 C -11.757 24.148 -11.841 26.987 -12.089 28.732 C -12.273 30.026 -13.247 31.558 -13.053 31.784 C -12.908 31.951 -12.187 31.355 -11.768 30.981 C -11.274 30.54 -11.41 29.997 -10.322 29.214 C -7.71 27.334 2.918 21.993 7.99 20.219 C 11.778 18.893 13.951 19.489 17.629 18.291 C 22.289 16.773 30.022 14.41 33.852 11.062 C 37.199 8.137 40.806 2.796 40.278 0.139 C 39.826 -2.136 34.906 -4.76 33.049 -4.52 C 31.473 -4.315 30.861 -1.163 29.516 -0.022 C 28.267 1.037 26.89 1.792 25.339 2.227 C 23.697 2.687 21.828 2.761 19.877 2.549 C 17.686 2.31 14.827 1.576 12.81 0.621 C 10.978 -0.246 9.304 -1.531 8.151 -2.752 C 7.158 -3.805 7.159 -5.443 6.063 -6.126 C 4.844 -6.886 2.526 -6.131 0.922 -6.769 C -0.75 -7.433 -2.584 -8.92 -3.736 -10.142 C -4.729 -11.195 -4.679 -12.439 -5.824 -13.515 C -7.34 -14.939 -11.131 -15.906 -12.732 -17.531 C -14.106 -18.926 -14.814 -20.578 -15.301 -22.35 C -15.812 -24.204 -16.109 -26.428 -15.623 -28.454 C -15.094 -30.659 -13.309 -33.441 -11.928 -35.04 C -10.797 -36.351 -9.353 -36.556 -8.234 -37.771 C -6.965 -39.148 -6.474 -41.635 -4.861 -43.072 C -3.092 -44.646 -1.193 -45.409 2.208 -46.606 C 7.552 -48.487 20.193 -51.622 25.982 -52.389 C 29.805 -52.895 31.37 -52.592 34.656 -52.389 C 38.589 -52.145 44.719 -51.521 48.149 -50.783 C 50.639 -50.247 52.123 -49.574 53.932 -48.855 C 55.645 -48.174 57.021 -47.782 58.751 -46.606 C 60.959 -45.105 63.48 -43.237 65.98 -40.02 C 69.447 -35.559 75.07 -25.575 76.903 -20.744 C 78.091 -17.61 77.873 -16.732 78.188 -13.354 C 78.673 -8.143 79.542 2.974 78.831 8.813 C 78.291 13.237 77.053 16.004 75.618 19.415 C 74.169 22.86 71.451 26.053 70.156 29.375 C 68.947 32.478 69.047 36.199 67.907 38.691 C 66.95 40.784 65.09 42.768 64.212 43.671 C 63.731 44.167 63.504 43.824 63.088 44.474 C 62.129 45.974 61.116 52.154 59.554 55.076 C 58.188 57.633 56.866 59.483 54.575 61.341 C 51.868 63.536 46.369 65.058 43.812 66.963 C 41.894 68.391 40.851 70.295 39.796 71.3 C 39.075 71.988 38.766 72.045 38.029 72.746 C 36.919 73.802 34.863 76.276 33.692 77.404 C 32.857 78.209 32.598 78.169 31.603 79.171 C 29.724 81.067 25.988 86.761 22.769 89.292 C 19.837 91.596 15.603 92.192 13.291 94.11 C 11.361 95.713 11.252 97.542 9.275 99.572 C 6.537 102.383 1.267 106.562 -2.612 109.21 C -6.106 111.596 -9.236 113.924 -12.892 114.993 C -16.522 116.054 -20.635 116.327 -24.458 115.635 C -28.456 114.912 -31.292 113.478 -36.345 110.496 C -44.203 105.856 -60.495 93.296 -67.829 87.364 C -72.708 83.418 -74.531 82.036 -78.271 77.887 C -83.042 72.592 -89.197 62.136 -93.853 57.164 C -97.309 53.473 -100.511 52.917 -103.33 49.293 C -106.71 44.948 -110.197 36.939 -112.004 31.945 C -113.419 28.034 -113.192 24.84 -114.253 21.664 C -115.258 18.654 -117.13 16.793 -118.108 13.311 C -119.355 8.875 -120.029 1.21 -120.357 -3.395 C -120.612 -6.977 -121.047 -9.005 -120.357 -12.39 C -119.498 -16.608 -117.006 -22.432 -114.574 -26.848 C -112.211 -31.138 -109.014 -35.305 -106.061 -38.574 C -103.422 -41.494 -99.28 -44.35 -97.868 -45.803 C -97.177 -46.514 -97.384 -46.661 -96.743 -47.248 C -95.67 -48.235 -93.392 -50.014 -91.282 -51.104 C -88.956 -52.305 -86.594 -53.45 -83.251 -53.995 Z M -13.053 31.784 L -13.053 32.105 L -13.053 31.784 Z" style="stroke-width: 2px; fill: rgb(255, 255, 255);"/>
    <path class="fil0" d="M 30.572 -58.255 C 43.968 -58.255 58.041 -51.782 68.439 -41.384 C 78.111 -31.71 84.684 -18.613 84.684 -4.167 C 84.684 27.726 66.739 54.52 44.793 75.59 C 23.198 96.36 -2.247 111.583 -17.917 120.605 C -19.093 121.306 -20.517 121.255 -21.642 120.605 C -37.288 111.583 -62.708 96.385 -84.328 75.59 C -106.248 54.52 -124.219 27.726 -124.219 -4.167 C -124.219 -18.613 -117.646 -31.71 -107.972 -41.384 C -97.575 -51.782 -83.503 -58.255 -70.106 -58.255 C -58.658 -58.255 -47.311 -55.555 -37.638 -50.056 C -30.564 -46.032 -24.391 -40.508 -19.767 -33.46 C -15.143 -40.508 -8.969 -46.032 -1.896 -50.056 C 7.776 -55.555 19.125 -58.255 30.572 -58.255 Z M 51.267 5.131 C 50.967 7.956 50.117 10.88 48.893 13.654 C 47.218 17.429 44.844 20.952 42.344 23.476 C 41.395 24.452 39.795 24.452 38.82 23.502 C 37.845 22.527 37.845 20.952 38.82 19.978 C 40.894 17.879 42.894 14.878 44.319 11.63 C 45.293 9.43 45.993 7.131 46.268 4.955 C 44.419 4.782 42.544 4.431 40.745 3.881 L 40.37 3.757 C 37.895 11.754 26.922 15.703 13.776 20.477 C -6.045 27.626 -31.29 36.773 -35.613 63.293 C -35.839 64.642 -37.113 65.567 -38.463 65.343 C -39.837 65.117 -40.762 63.843 -40.538 62.493 C -37.763 45.522 -27.691 35.125 -15.643 27.901 C -13.793 19.352 -13.669 10.43 -14.918 1.807 C -16.218 -7.391 -19.067 -16.215 -22.942 -23.837 C -23.017 -23.963 -23.091 -24.088 -23.142 -24.238 L -23.341 -24.613 L -23.616 -25.162 L -23.767 -25.463 C -27.865 -33.385 -34.014 -39.41 -41.312 -43.558 C -49.811 -48.407 -59.884 -50.757 -70.106 -50.757 C -75.255 -50.757 -80.553 -49.607 -85.653 -47.507 L -85.928 -47.358 C -90.777 -44.958 -94.076 -41.309 -96.225 -37.26 C -99.025 -31.985 -99.924 -25.987 -99.724 -21.013 C -99.349 -11.64 -94.826 -2.068 -88.202 6.606 C -80.253 17.054 -69.257 26.201 -58.684 32.35 C -57.484 33.05 -57.084 34.574 -57.759 35.774 C -58.458 36.948 -59.984 37.374 -61.182 36.673 C -72.281 30.225 -83.803 20.603 -92.177 9.629 C -99.375 0.207 -104.274 -10.316 -104.698 -20.838 C -104.899 -25.687 -104.174 -31.411 -101.949 -36.785 L -102.674 -36.085 C -111.022 -27.712 -116.721 -16.49 -116.721 -4.167 C -116.721 25.302 -99.799 50.345 -79.129 70.217 C -76.329 72.941 -73.43 75.541 -70.481 78.065 C -70.981 76.59 -71.38 75.14 -71.606 73.891 C -71.83 72.515 -70.931 71.216 -69.556 70.991 C -68.206 70.767 -66.907 71.666 -66.682 73.016 C -66.282 75.29 -65.207 78.29 -63.982 80.939 L -63.933 81.064 C -63.032 82.964 -62.107 84.614 -61.384 85.513 C -46.161 97.361 -30.815 106.633 -19.767 113.058 C -14.244 109.857 -7.67 105.959 -0.572 101.385 C 2.503 98.76 6.302 94.511 10.076 89.663 C 15.551 82.589 20.824 74.265 23.599 67.617 C 24.123 66.342 25.573 65.742 26.847 66.268 C 28.122 66.792 28.722 68.267 28.198 69.516 C 25.623 75.665 21.099 83.114 16.175 89.812 C 24.074 83.988 32.096 77.44 39.62 70.217 C 60.265 50.345 77.186 25.302 77.186 -4.167 C 77.186 -16.49 71.487 -27.712 63.139 -36.085 C 54.091 -45.133 41.994 -50.757 30.572 -50.757 C 20.349 -50.757 10.276 -48.407 1.778 -43.558 C -4.82 -39.809 -10.495 -34.51 -14.543 -27.686 C -14.943 -26.761 -15.169 -25.912 -15.218 -25.088 C -15.268 -23.963 -15.043 -22.912 -14.543 -21.987 C -14.044 -21.013 -13.243 -20.113 -12.243 -19.363 C -10.719 -18.214 -8.795 -17.389 -6.67 -16.989 C -5.57 -20.388 -3.62 -24.238 -1.271 -27.712 C 1.528 -31.936 4.952 -35.71 8.102 -37.66 C 9.276 -38.385 10.826 -38.035 11.551 -36.859 C 12.276 -35.685 11.901 -34.161 10.751 -33.436 L 10.502 -33.285 C 7.827 -31.435 5.202 -28.411 2.978 -25.088 C 0.353 -21.188 -1.621 -16.964 -2.371 -13.89 L -2.396 -13.739 C -2.621 -12.741 -2.571 -11.415 -2.247 -10.316 C -2.071 -9.715 -1.846 -9.241 -1.646 -9.165 C -0.497 -8.666 2.152 -8.291 4.552 -8.291 C 5.702 -8.291 6.677 -8.316 7.252 -8.441 C 7.851 -10.665 9.377 -13.615 11.301 -16.639 L 12.201 -18.065 C 15.375 -22.888 19.099 -27.237 20.498 -28.462 C 21.549 -29.336 23.123 -29.237 24.023 -28.187 C 24.873 -27.212 24.823 -25.738 23.923 -24.838 C 21.549 -22.388 18.599 -18.664 16.175 -15.015 L 14.775 -12.715 C 13.501 -10.491 12.45 -8.291 11.975 -6.467 L 11.875 -6.017 C 11.726 -5.416 11.676 -4.867 11.7 -4.367 C 11.751 -3.642 11.926 -3.067 12.276 -2.643 C 12.776 -2.068 13.701 -1.518 15.2 -0.968 C 17.175 -0.218 19.874 0.556 22.399 0.782 C 23.998 0.907 25.447 0.807 26.372 0.307 C 27.348 -0.243 27.872 -1.068 28.198 -2.093 C 27.597 -2.117 27.047 -2.168 26.598 -2.268 L 26.472 -2.292 C 26.022 -2.392 25.598 -2.543 25.248 -2.743 L 25.073 -2.842 C 24.273 -3.317 23.773 -3.992 23.648 -4.817 L 23.599 -5.316 C 23.599 -6.341 24.074 -7.217 25.123 -7.841 C 26.698 -8.79 27.972 -9.866 29.021 -11.166 C 30.121 -12.49 31.022 -14.065 31.847 -15.989 C 32.371 -17.264 33.821 -17.839 35.095 -17.315 C 36.37 -16.789 36.945 -15.314 36.421 -14.065 C 35.421 -11.69 34.271 -9.715 32.872 -7.991 L 32.821 -7.941 C 34.895 -4.242 38.345 -2.042 42.144 -0.893 C 48.143 0.907 54.941 0.232 59.04 -1.243 C 60.34 -1.718 61.764 -1.043 62.214 0.257 C 62.689 1.557 62.015 2.981 60.715 3.431 C 58.215 4.331 54.867 4.981 51.267 5.131 Z M 32.896 -0.193 C 32.296 1.732 31.146 3.356 28.772 4.682 C 26.873 5.705 24.473 5.956 21.973 5.756 C 18.999 5.505 15.775 4.58 13.475 3.706 C 11.126 2.832 9.551 1.832 8.501 0.607 C 7.476 -0.593 6.977 -1.918 6.802 -3.417 C 6.077 -3.342 5.327 -3.293 4.552 -3.317 C 1.528 -3.317 -1.946 -3.867 -3.596 -4.567 C -5.32 -5.316 -6.42 -6.966 -7.02 -8.866 C -7.32 -9.89 -7.495 -10.991 -7.52 -12.065 C -9.694 -12.49 -11.794 -13.24 -13.594 -14.289 C -11.944 -9.366 -10.719 -4.192 -9.969 1.106 C -8.844 8.906 -8.769 16.954 -9.994 24.802 C -2.695 21.127 5.027 18.328 12.075 15.778 C 24.323 11.355 34.445 7.706 35.745 1.756 C 34.746 1.206 33.795 0.556 32.896 -0.193 Z" style="fill-rule: nonzero;" id="object-1"/>
  </g>
</svg>