<svg class="css-ze2te4 css-qd6ojx" viewBox="0 0 218.75 208.9834213256836"><g transform="translate(-3.41796875, -8.301254827529192) scale(3.41796875)" class="css-6bh7kg" fill="#680747"><g xmlns="http://www.w3.org/2000/svg"><path d="M35.09131,13.89795c-0.20801-3.83643-3.38867-6.8418-7.24072-6.8418h-4.29199c-3.85156,0-7.03223,3.00781-7.24121,6.84863   l-0.07178,1.33594l18.91992-0.00781L35.09131,13.89795z M18.41406,13.23975c0.49268-2.3999,2.61963-4.18359,5.14453-4.18359   h4.29199c2.5249,0,4.65137,1.78076,5.14404,4.17773L18.41406,13.23975z"></path><path d="M15.25,63.57129h20.91943c0.15332,0,0.30469-0.03516,0.44189-0.10303c3.71033-1.82825,6.91241-4.59143,9.28955-7.94373   v4.64294c0,1.87695,1.52686,3.40381,3.40381,3.40381s3.40381-1.52686,3.40381-3.40381v-0.90771h0.37354   c1.97253,0,3.62946-1.30042,4.20825-3.08252h2.323c1.50195,0,2.72363-1.22168,2.72363-2.72363V52.1969   C63.83667,51.99231,65,50.71661,65,49.16162c0-1.55902-1.16333-2.83832-2.66309-3.04346v-1.24805   c0-1.50195-1.22168-2.72363-2.72363-2.72363h-2.32355c-0.57928-1.78497-2.23584-3.0874-4.2077-3.0874H52.7085v-0.89844   c-0.00043-1.80743-1.44104-3.26971-3.18481-3.38965c-1.48993-5.44226-4.77893-10.20831-9.38745-13.51855l-0.42139-7.60449   C39.37109,7.35693,34.15967,2.42871,27.85107,2.42871h-4.29248c-6.30859,0-11.52002,4.92822-11.86377,11.21875l-0.42139,7.61523   C4.83057,25.90186,1,33.36133,1,41.31836c0,9.45605,5.29053,17.94336,13.80713,22.14941   C14.94482,63.53613,15.09619,63.57129,15.25,63.57129z M24.99561,60.16699c0-16.27132,0-11.60173,0-22.01025   c0-0.77441,0.62988-1.4043,1.4043-1.4043c0.74249,0,1.40479,0.59932,1.40479,1.4043v22.01025   c0,0.77441-0.63037,1.4043-1.40479,1.4043S24.99561,60.94141,24.99561,60.16699z M20.18652,43.5083   c0-1.34961,1.09766-2.44727,2.44727-2.44727h0.36182V57.2627h-0.36182c-1.34961,0-2.44727-1.09766-2.44727-2.44727V43.5083z    M35.93359,61.57129h-6.44067c0.19592-0.42938,0.31177-0.90234,0.31177-1.4043v-7.92822h15.7973   C43.40381,56.21625,40.0116,59.50934,35.93359,61.57129z M45.90088,50.23877h-16.0957v-2.15869h16.0957V50.23877z M63,49.16162   c0,0.44727-0.27393,0.83203-0.66309,0.99414v-1.99609C62.72607,48.32324,63,48.71094,63,49.16162z M57.52832,44.14648h2.08496   c0.39893,0,0.72363,0.32471,0.72363,0.72363c0,0.23652,0,9.16531,0,8.5835c0,0.39893-0.32471,0.72363-0.72363,0.72363h-2.08496   V44.14648z M53.08203,41.05908c1.34766,0,2.44385,1.10059,2.44385,2.45313v11.3042c0,1.34717-1.09619,2.44336-2.44385,2.44336   H52.7085V41.05908H53.08203z M50.7085,38.16064c0,8.23451,0,17.05341,0,22.00684c0,0.77393-0.62988,1.40381-1.40381,1.40381   s-1.40381-0.62988-1.40381-1.40381c0-7.06796,0-13.41724,0-22.00684C47.90088,36.31334,50.7085,36.25439,50.7085,38.16064z    M3,41.31836c0-7.46436,3.66846-14.45264,9.81299-18.69434c0.0152-0.01044,0.02179-0.02863,0.03632-0.03986   c0.01611-0.01202,0.03552-0.01636,0.05109-0.02948c0.0127-0.01074,1.3252-1.09766,5.61768-2.64014   c0.51953-0.18652,0.78955-0.75928,0.60254-1.2793c-0.18652-0.51953-0.75928-0.7915-1.2793-0.60254   c-2.08423,0.74896-3.52185,1.40302-4.49176,1.91077l0.34235-6.18616c0.28613-5.23096,4.62012-9.32861,9.8667-9.32861h4.29248   c5.24658,0,9.58057,4.09766,9.8667,9.3291l0.34283,6.18726c-0.96686-0.52356-2.46655-1.22461-4.73053-2.03784   c-0.51904-0.18799-1.09229,0.08301-1.27881,0.60303c-0.18701,0.51953,0.08301,1.09229,0.60303,1.27881   c4.85416,1.74465,5.48576,2.66691,5.94324,2.82642c4.40649,3.03522,7.57733,7.48425,8.99768,12.59595   c-0.01392,0.00812-0.02374,0.02094-0.03754,0.02924c-1.02339,0.61753-1.6568,1.69383-1.6568,2.91998v7.91943H29.80469v-7.92334   c0-1.91365-1.55212-3.4043-3.40479-3.4043c-1.87695,0-3.4043,1.52734-3.4043,3.4043v0.9043h-0.36182   c-1.97418,0-3.63239,1.30176-4.21155,3.08545h-2.32068c-1.50195,0-2.72363,1.22168-2.72363,2.72363v1.24652   c-0.66479,0.08942-1.28143,0.37915-1.7583,0.85602c-0.58057,0.56689-0.91357,1.36475-0.91357,2.18896   c0,1.55542,1.1673,2.83136,2.67188,3.0354v1.25659c0,1.50195,1.22168,2.72363,2.72363,2.72363h2.32068   c0.57916,1.78369,2.23737,3.08545,4.21155,3.08545h0.36182v0.9043c0,0.50195,0.11584,0.97491,0.31177,1.4043h-7.82153   C7.77832,57.66992,3,49.93115,3,41.31836z M13.37793,50.15723c-0.39404-0.16162-0.67188-0.54688-0.67188-0.99561   c0-0.28857,0.11328-0.56494,0.31934-0.7666c0.10303-0.10303,0.22266-0.18262,0.35254-0.23682V50.15723z M15.37793,44.87012   c0-0.39893,0.32471-0.72363,0.72363-0.72363h2.08496v10.03076h-2.08496c-0.39893,0-0.72363-0.32471-0.72363-0.72363   C15.37793,53.24617,15.37793,44.28831,15.37793,44.87012z"></path><rect x="19.14893" y="24.40869" width="2.63916" height="2"></rect><rect x="24.39111" y="24.40869" width="2.63867" height="2"></rect><rect x="29.63281" y="24.40869" width="2.63916" height="2"></rect></g></g></svg>